<?xml version="1.0" encoding="UTF-8" standalone="no"?>
<!DOCTYPE svg PUBLIC "-//W3C//DTD SVG 1.1//EN" "http://www.w3.org/Graphics/SVG/1.1/DTD/svg11.dtd">
<!-- Generated by Microsoft Visio, SVG Export chordaeInCoords.svg systemInWorld -->
<svg xmlns="http://www.w3.org/2000/svg" xmlns:xlink="http://www.w3.org/1999/xlink" xmlns:ev="http://www.w3.org/2001/xml-events"
		xmlns:v="http://schemas.microsoft.com/visio/2003/SVGExtensions/" width="8.26772in" height="11.6929in"
		viewBox="0 0 595.276 841.889" xml:space="preserve" color-interpolation-filters="sRGB" class="st13">
	<v:documentProperties v:langID="1033">
		<v:userDefs>
			<v:ud v:nameU="msvNoAutoConnect" v:val="VT0(1):26"/>
		</v:userDefs>
	</v:documentProperties>

	<style type="text/css">
	<![CDATA[
		.st1 {fill:none;stroke:none;stroke-width:1}
		.st2 {fill:none}
		.st3 {stroke:#000000;stroke-linecap:round;stroke-linejoin:round;stroke-width:0.749999}
		.st4 {fill:none;stroke:#000000;stroke-linecap:round;stroke-linejoin:round;stroke-width:0.749999}
		.st5 {marker-start:url(#mrkr3-44);stroke:#000000;stroke-linecap:round;stroke-linejoin:round;stroke-width:0.749999}
		.st6 {fill:#000000;fill-opacity:1;stroke:#000000;stroke-opacity:1;stroke-width:0.34246539265527}
		.st7 {fill:none;stroke:none;stroke-linecap:round;stroke-linejoin:round;stroke-width:0.749999}
		.st8 {fill:#000000;font-family:Calibri;font-size:1.00001em}
		.st9 {marker-end:url(#mrkr3-61);stroke:#000000;stroke-linecap:round;stroke-linejoin:round;stroke-width:0.75}
		.st10 {fill:#000000;fill-opacity:1;stroke:#000000;stroke-opacity:1;stroke-width:0.34246569289933}
		.st11 {stroke:#000000;stroke-linecap:round;stroke-linejoin:round;stroke-width:1.5}
		.st12 {font-size:0.499989em}
		.st13 {fill:none;fill-rule:evenodd;font-size:12px;overflow:visible;stroke-linecap:square;stroke-miterlimit:3}
	]]>
	</style>

	<defs id="Markers">
		<g id="lend3">
			<path d="M 2 1 L 0 0 L 2 -1 " style="stroke-linecap:round;stroke-linejoin:round;fill:none"/>
		</g>
		<marker id="mrkr3-44" class="st6" v:arrowType="3" v:arrowSize="0" orient="auto" markerUnits="strokeWidth"
				overflow="visible">
			<use xlink:href="#lend3" transform="scale(2.9200030760674) "/>
		</marker>
		<marker id="mrkr3-61" class="st10" v:arrowType="3" v:arrowSize="0" orient="auto" markerUnits="strokeWidth"
				overflow="visible">
			<use xlink:href="#lend3" transform="scale(-2.9200005160633,-2.9200005160633) "/>
		</marker>
	</defs>
	<g v:mID="0" v:index="1" v:groupContext="foregroundPage">
		<title>systemInWorld</title>
		<v:pageProperties v:drawingScale="0.0393701" v:pageScale="0.0393701" v:drawingUnits="24" v:shadowOffsetX="8.50393"
				v:shadowOffsetY="-8.50393"/>
		<g id="group41-1" transform="translate(1159.26,123.514) rotate(90)" v:mID="41" v:groupContext="group">
			<title>Лист.25</title>
			<g id="shape42-2" v:mID="42" v:groupContext="shape">
				<title>Лист.26</title>
				<path d="M0 841.89 L7.03 841.89 L0 841.89 Z" class="st1"/>
			</g>
			<g id="group43-4" v:mID="43" v:groupContext="group">
				<title>Лист.27</title>
				<g id="shape44-5" v:mID="44" v:groupContext="shape">
					<title>Sheet.44</title>
					<path d="M0 841.89 L7.03 841.89 L0 841.89 Z" class="st1"/>
				</g>
				<g id="shape45-7" v:mID="45" v:groupContext="shape">
					<title>Sheet.45</title>
					<path d="M0 841.89 L7.03 841.89 L0 841.89 Z" class="st2"/>
					<path d="M0 841.89 L7.03 841.89" class="st3"/>
				</g>
			</g>
		</g>
		<g id="group46-10" transform="translate(912.675,725.844) rotate(135)" v:mID="46" v:groupContext="group">
			<title>Лист.28</title>
			<g id="shape47-11" v:mID="47" v:groupContext="shape">
				<title>Лист.29</title>
				<path d="M0 841.89 L11.87 841.89 L0 841.89 Z" class="st1"/>
			</g>
			<g id="group48-13" v:mID="48" v:groupContext="group">
				<title>Лист.30</title>
				<g id="shape49-14" v:mID="49" v:groupContext="shape">
					<title>Sheet.49</title>
					<path d="M0 841.89 L11.87 841.89 L0 841.89 Z" class="st1"/>
				</g>
				<g id="shape50-16" v:mID="50" v:groupContext="shape">
					<title>Sheet.50</title>
					<path d="M0 841.89 L11.87 841.89 L0 841.89 Z" class="st2"/>
					<path d="M0 841.89 L11.87 841.89" class="st3"/>
				</g>
			</g>
		</g>
		<g id="group51-19" transform="translate(308.98,-702.953)" v:mID="51" v:groupContext="group">
			<title>Лист.31</title>
			<g id="shape52-20" v:mID="52" v:groupContext="shape">
				<title>Лист.32</title>
				<path d="M0 841.89 L16.9 841.89 L0 841.89 Z" class="st1"/>
			</g>
			<g id="group53-22" v:mID="53" v:groupContext="group">
				<title>Лист.33</title>
				<g id="shape54-23" v:mID="54" v:groupContext="shape">
					<title>Sheet.54</title>
					<path d="M0 841.89 L16.9 841.89 L0 841.89 Z" class="st1"/>
				</g>
				<g id="shape55-25" v:mID="55" v:groupContext="shape">
					<title>Sheet.55</title>
					<path d="M0 841.89 L16.9 841.89 L0 841.89 Z" class="st2"/>
					<path d="M0 841.89 L16.9 841.89" class="st3"/>
				</g>
			</g>
		</g>
		<g id="group56-28" transform="translate(908.72,-468.691) rotate(44.6206)" v:mID="56" v:groupContext="group">
			<title>Лист.34</title>
			<g id="shape57-29" v:mID="57" v:groupContext="shape">
				<title>Лист.35</title>
				<path d="M0 841.89 L11.95 841.89 L0 841.89 Z" class="st1"/>
			</g>
			<g id="group58-31" v:mID="58" v:groupContext="group">
				<title>Лист.36</title>
				<g id="shape59-32" v:mID="59" v:groupContext="shape">
					<title>Sheet.59</title>
					<path d="M0 841.89 L11.95 841.89 L0 841.89 Z" class="st1"/>
				</g>
				<g id="shape60-34" v:mID="60" v:groupContext="shape">
					<title>Sheet.60</title>
					<path d="M0 841.89 L11.95 841.89 L0 841.89 Z" class="st2"/>
					<path d="M0 841.89 L11.95 841.89" class="st3"/>
				</g>
			</g>
		</g>
		<g id="shape194-37" v:mID="194" v:groupContext="shape" transform="translate(314.646,-718.884)">
			<title>Лист.122</title>
			<ellipse cx="2.83465" cy="838.771" rx="2.83465" ry="3.11811" class="st4"/>
		</g>
		<g id="shape197-39" v:mID="197" v:groupContext="shape" transform="translate(1020.47,107.716) rotate(90)">
			<title>Лист.125</title>
			<path d="M0 841.89 L123.66 841.89" class="st5"/>
		</g>
		<g id="shape198-45" v:mID="198" v:groupContext="shape" transform="translate(337.323,1073.26) rotate(180)">
			<title>Лист.126</title>
			<path d="M0 841.89 L158.74 841.89" class="st5"/>
		</g>
		<g id="shape199-50" v:mID="199" v:groupContext="shape" transform="translate(165.037,-727.936)">
			<title>Лист.127</title>
			<desc>Y</desc>
			<v:userDefs/>
			<v:textBlock v:margins="rect(3.99999,3.99999,3.99999,3.99999)" v:tabSpace="42.5196"/>
			<v:textRect cx="5.78656" cy="838.771" width="11.58" height="6.23621"/>
			<rect x="0" y="835.653" width="11.5738" height="6.23621" class="st7"/>
			<text x="4" y="842.37" class="st8" v:langID="1049"><v:paragraph v:horizAlign="1"/><v:tabList/>Y</text>		</g>
		<g id="shape200-53" v:mID="200" v:groupContext="shape" transform="translate(328.584,-599.244)">
			<title>Лист.128</title>
			<desc>X</desc>
			<v:userDefs/>
			<v:textBlock v:margins="rect(3.99999,3.99999,3.99999,3.99999)" v:tabSpace="42.5196"/>
			<v:textRect cx="5.78656" cy="838.771" width="11.58" height="6.23621"/>
			<rect x="0" y="835.653" width="11.5738" height="6.23621" class="st7"/>
			<text x="4" y="842.37" class="st8" v:langID="1049"><v:paragraph v:horizAlign="1"/><v:tabList/>X</text>		</g>
		<g id="shape201-56" v:mID="201" v:groupContext="shape" transform="translate(769.758,830.778) rotate(135.396)">
			<title>Лист.129</title>
			<path d="M0 841.89 L17.79 841.89" class="st9"/>
		</g>
		<g id="shape202-62" v:mID="202" v:groupContext="shape" transform="translate(171.378,-595.276)">
			<title>Лист.130</title>
			<desc>X</desc>
			<v:userDefs/>
			<v:textBlock v:margins="rect(3.99999,3.99999,3.99999,3.99999)" v:tabSpace="42.5196"/>
			<v:textRect cx="5.78656" cy="838.771" width="11.58" height="6.23621"/>
			<rect x="0" y="835.653" width="11.5738" height="6.23621" class="st7"/>
			<text x="4" y="842.37" class="st8" v:langID="1049"><v:paragraph v:horizAlign="1"/><v:tabList/>Z</text>		</g>
		<g id="shape203-65" v:mID="203" v:groupContext="shape" transform="translate(-277.064,-458.919) rotate(-35.2607)">
			<title>Sheet.203</title>
			<path d="M0 812.87 A126.142 84.2512 -33.74 0 0 151.69 812.87" class="st11"/>
		</g>
		<g id="shape204-68" v:mID="204" v:groupContext="shape" transform="translate(1157.95,96.0533) rotate(90)">
			<title>Лист.204</title>
			<path d="M0 841.89 L20.9 841.89" class="st5"/>
		</g>
		<g id="shape205-73" v:mID="205" v:groupContext="shape" transform="translate(333.071,958.844) rotate(180)">
			<title>Лист.205</title>
			<path d="M0 841.89 L17.01 841.89" class="st5"/>
		</g>
		<g id="shape207-78" v:mID="207" v:groupContext="shape" transform="translate(320.08,-733.341)">
			<title>Лист.207</title>
			<desc>Y</desc>
			<v:userDefs/>
			<v:textBlock v:margins="rect(3.99999,3.99999,3.99999,3.99999)" v:tabSpace="42.5196"/>
			<v:textRect cx="10.0383" cy="838.771" width="20.09" height="6.23621"/>
			<rect x="0" y="835.653" width="20.0777" height="6.23621" class="st7"/>
			<text x="4.67" y="842.37" class="st8" v:langID="1033"><v:paragraph v:horizAlign="1"/><v:tabList/>U<tspan class="st12">2</tspan></text>		</g>
		<g id="shape208-82" v:mID="208" v:groupContext="shape" transform="translate(-190.822,824.929) rotate(-144)">
			<title>Лист.208</title>
			<path d="M0 841.89 L17.01 841.89" class="st5"/>
		</g>
		<g id="shape209-87" v:mID="209" v:groupContext="shape" transform="translate(-198.03,834.987) rotate(-144)">
			<title>Лист.209</title>
			<path d="M0 841.89 L17.01 841.89" class="st5"/>
		</g>
		<g id="shape210-92" v:mID="210" v:groupContext="shape" transform="translate(-205.301,846.019) rotate(-144)">
			<title>Лист.210</title>
			<path d="M0 841.89 L17.01 841.89" class="st5"/>
		</g>
		<g id="shape211-97" v:mID="211" v:groupContext="shape" transform="translate(-376.06,706.082) rotate(-129)">
			<title>Лист.211</title>
			<path d="M0 841.89 L17.01 841.89" class="st5"/>
		</g>
		<g id="shape212-102" v:mID="212" v:groupContext="shape" transform="translate(-384.917,714.149) rotate(-129)">
			<title>Лист.212</title>
			<path d="M0 841.89 L17.01 841.89" class="st5"/>
		</g>
		<g id="shape213-107" v:mID="213" v:groupContext="shape" transform="translate(-393.766,721.38) rotate(-129)">
			<title>Лист.213</title>
			<path d="M0 841.89 L17.01 841.89" class="st5"/>
		</g>
		<g id="shape214-112" v:mID="214" v:groupContext="shape" transform="translate(-522.493,542.686) rotate(-114)">
			<title>Лист.214</title>
			<path d="M0 841.89 L17.01 841.89" class="st5"/>
		</g>
		<g id="shape215-117" v:mID="215" v:groupContext="shape" transform="translate(-533.998,547.298) rotate(-114)">
			<title>Лист.215</title>
			<path d="M0 841.89 L17.01 841.89" class="st5"/>
		</g>
		<g id="shape216-122" v:mID="216" v:groupContext="shape" transform="translate(-613.603,339.461) rotate(-99)">
			<title>Лист.216</title>
			<path d="M0 841.89 L17.01 841.89" class="st5"/>
		</g>
		<g id="shape217-127" v:mID="217" v:groupContext="shape" transform="translate(238.673,-680.998)">
			<title>Лист.217</title>
			<desc>Y</desc>
			<v:userDefs/>
			<v:textBlock v:margins="rect(3.99999,3.99999,3.99999,3.99999)" v:tabSpace="42.5196"/>
			<v:textRect cx="5.78656" cy="838.771" width="11.58" height="6.23621"/>
			<rect x="0" y="835.653" width="11.5738" height="6.23621" class="st7"/>
			<text x="4" y="842.37" class="st8" v:langID="1033"><v:paragraph v:horizAlign="1"/><v:tabList/>P</text>		</g>
		<g id="group218-130" transform="translate(1034.53,211.671) rotate(90)" v:mID="218" v:groupContext="group">
			<title>Лист.218</title>
			<g id="shape219-131" v:mID="219" v:groupContext="shape">
				<title>Лист.26</title>
				<path d="M0 841.89 L7.03 841.89 L0 841.89 Z" class="st1"/>
			</g>
			<g id="group220-133" v:mID="220" v:groupContext="group">
				<title>Лист.27</title>
				<g id="shape221-134" v:mID="221" v:groupContext="shape">
					<title>Sheet.221</title>
					<path d="M0 841.89 L7.03 841.89 L0 841.89 Z" class="st1"/>
				</g>
				<g id="shape222-136" v:mID="222" v:groupContext="shape">
					<title>Sheet.222</title>
					<path d="M0 841.89 L7.03 841.89 L0 841.89 Z" class="st2"/>
					<path d="M0 841.89 L7.03 841.89" class="st3"/>
				</g>
			</g>
		</g>
		<g id="group223-139" transform="translate(787.951,814.002) rotate(135)" v:mID="223" v:groupContext="group">
			<title>Лист.223</title>
			<g id="shape224-140" v:mID="224" v:groupContext="shape">
				<title>Лист.29</title>
				<path d="M0 841.89 L11.87 841.89 L0 841.89 Z" class="st1"/>
			</g>
			<g id="group225-142" v:mID="225" v:groupContext="group">
				<title>Лист.30</title>
				<g id="shape226-143" v:mID="226" v:groupContext="shape">
					<title>Sheet.226</title>
					<path d="M0 841.89 L11.87 841.89 L0 841.89 Z" class="st1"/>
				</g>
				<g id="shape227-145" v:mID="227" v:groupContext="shape">
					<title>Sheet.227</title>
					<path d="M0 841.89 L11.87 841.89 L0 841.89 Z" class="st2"/>
					<path d="M0 841.89 L11.87 841.89" class="st3"/>
				</g>
			</g>
		</g>
		<g id="group228-148" transform="translate(184.255,-614.795)" v:mID="228" v:groupContext="group">
			<title>Лист.228</title>
			<g id="shape229-149" v:mID="229" v:groupContext="shape">
				<title>Лист.32</title>
				<path d="M0 841.89 L16.9 841.89 L0 841.89 Z" class="st1"/>
			</g>
			<g id="group230-151" v:mID="230" v:groupContext="group">
				<title>Лист.33</title>
				<g id="shape231-152" v:mID="231" v:groupContext="shape">
					<title>Sheet.231</title>
					<path d="M0 841.89 L16.9 841.89 L0 841.89 Z" class="st1"/>
				</g>
				<g id="shape232-154" v:mID="232" v:groupContext="shape">
					<title>Sheet.232</title>
					<path d="M0 841.89 L16.9 841.89 L0 841.89 Z" class="st2"/>
					<path d="M0 841.89 L16.9 841.89" class="st3"/>
				</g>
			</g>
		</g>
		<g id="group233-157" transform="translate(783.996,-380.534) rotate(44.6206)" v:mID="233" v:groupContext="group">
			<title>Лист.233</title>
			<g id="shape234-158" v:mID="234" v:groupContext="shape">
				<title>Лист.35</title>
				<path d="M0 841.89 L11.95 841.89 L0 841.89 Z" class="st1"/>
			</g>
			<g id="group235-160" v:mID="235" v:groupContext="group">
				<title>Лист.36</title>
				<g id="shape236-161" v:mID="236" v:groupContext="shape">
					<title>Sheet.236</title>
					<path d="M0 841.89 L11.95 841.89 L0 841.89 Z" class="st1"/>
				</g>
				<g id="shape237-163" v:mID="237" v:groupContext="shape">
					<title>Sheet.237</title>
					<path d="M0 841.89 L11.95 841.89 L0 841.89 Z" class="st2"/>
					<path d="M0 841.89 L11.95 841.89" class="st3"/>
				</g>
			</g>
		</g>
		<g id="shape238-166" v:mID="238" v:groupContext="shape" transform="translate(189.921,-630.726)">
			<title>Лист.238</title>
			<ellipse cx="2.83465" cy="838.771" rx="2.83465" ry="3.11811" class="st4"/>
		</g>
		<g id="shape239-168" v:mID="239" v:groupContext="shape" transform="translate(1033.23,183.189) rotate(90)">
			<title>Лист.239</title>
			<path d="M0 841.89 L20.9 841.89" class="st5"/>
		</g>
		<g id="shape240-173" v:mID="240" v:groupContext="shape" transform="translate(208.348,1045.98) rotate(180)">
			<title>Лист.240</title>
			<path d="M0 841.89 L17.01 841.89" class="st5"/>
		</g>
		<g id="shape241-178" v:mID="241" v:groupContext="shape" transform="translate(188.386,-644.882)">
			<title>Лист.241</title>
			<desc>Y</desc>
			<v:userDefs/>
			<v:textBlock v:margins="rect(3.99999,3.99999,3.99999,3.99999)" v:tabSpace="42.5196"/>
			<v:textRect cx="10.0383" cy="838.771" width="20.09" height="6.23621"/>
			<rect x="0" y="835.653" width="20.0777" height="6.23621" class="st7"/>
			<text x="4.67" y="842.37" class="st8" v:langID="1033"><v:paragraph v:horizAlign="1"/><v:tabList/>U<tspan class="st12">1</tspan></text>		</g>
	</g>
</svg>
