<?xml version="1.0" encoding="UTF-8" standalone="no"?>
<!DOCTYPE svg PUBLIC "-//W3C//DTD SVG 1.1//EN" "http://www.w3.org/Graphics/SVG/1.1/DTD/svg11.dtd">
<!-- Создано Microsoft Visio, экспорт SVG systemAtworld.svg systemInWorld -->
<svg xmlns="http://www.w3.org/2000/svg" xmlns:xlink="http://www.w3.org/1999/xlink" xmlns:ev="http://www.w3.org/2001/xml-events"
		xmlns:v="http://schemas.microsoft.com/visio/2003/SVGExtensions/" width="8.26772in" height="11.6929in"
		viewBox="0 0 595.276 841.889" xml:space="preserve" color-interpolation-filters="sRGB" class="st12">
	<v:documentProperties v:langID="1049">
		<v:userDefs>
			<v:ud v:nameU="msvNoAutoConnect" v:val="VT0(1):26"/>
		</v:userDefs>
	</v:documentProperties>

	<style type="text/css">
	<![CDATA[
		.st1 {fill:none;stroke:none;stroke-width:1}
		.st2 {fill:none}
		.st3 {stroke:#000000;stroke-linecap:round;stroke-linejoin:round;stroke-width:0.749999}
		.st4 {fill:none;stroke:#000000;stroke-linecap:round;stroke-linejoin:round;stroke-width:0.749999}
		.st5 {marker-end:url(#mrkr5-229);stroke:#000000;stroke-linecap:round;stroke-linejoin:round;stroke-width:0.749999}
		.st6 {fill:#000000;fill-opacity:1;stroke:#000000;stroke-opacity:1;stroke-width:0.34246539265527}
		.st7 {fill:none;stroke:none;stroke-linecap:round;stroke-linejoin:round;stroke-width:0.749999}
		.st8 {fill:#000000;font-family:Calibri;font-size:1.00001em}
		.st9 {marker-start:url(#mrkr3-263);stroke:#000000;stroke-linecap:round;stroke-linejoin:round;stroke-width:0.749999}
		.st10 {marker-end:url(#mrkr3-280);stroke:#000000;stroke-linecap:round;stroke-linejoin:round;stroke-width:0.75}
		.st11 {fill:#000000;fill-opacity:1;stroke:#000000;stroke-opacity:1;stroke-width:0.34246569289933}
		.st12 {fill:none;fill-rule:evenodd;font-size:12px;overflow:visible;stroke-linecap:square;stroke-miterlimit:3}
	]]>
	</style>

	<defs id="Markers">
		<g id="lend5">
			<path d="M 2 1 L 0 0 L 1.98117 -0.993387 C 1.67173 -0.364515 1.67301 0.372641 1.98465 1.00043 " style="stroke:none"/>
		</g>
		<marker id="mrkr5-229" class="st6" v:arrowType="5" v:arrowSize="0" v:setback="0" refX="-0" orient="auto"
				markerUnits="strokeWidth" overflow="visible">
			<use xlink:href="#lend5" transform="scale(-2.9200030760674,-2.9200030760674) "/>
		</marker>
		<g id="lend3">
			<path d="M 2 1 L 0 0 L 2 -1 " style="stroke-linecap:round;stroke-linejoin:round;fill:none"/>
		</g>
		<marker id="mrkr3-263" class="st6" v:arrowType="3" v:arrowSize="0" orient="auto" markerUnits="strokeWidth"
				overflow="visible">
			<use xlink:href="#lend3" transform="scale(2.9200030760674) "/>
		</marker>
		<marker id="mrkr3-280" class="st11" v:arrowType="3" v:arrowSize="0" orient="auto" markerUnits="strokeWidth"
				overflow="visible">
			<use xlink:href="#lend3" transform="scale(-2.9200005160633,-2.9200005160633) "/>
		</marker>
	</defs>
	<g v:mID="0" v:index="1" v:groupContext="foregroundPage">
		<title>systemInWorld</title>
		<v:pageProperties v:drawingScale="0.0393701" v:pageScale="0.0393701" v:drawingUnits="24" v:shadowOffsetX="8.50393"
				v:shadowOffsetY="-8.50393"/>
		<g id="group1-1" transform="translate(1071.44,136.801) rotate(90)" v:mID="1" v:groupContext="group">
			<title>Лист.1</title>
			<g id="shape2-2" v:mID="2" v:groupContext="shape">
				<title>Лист.2</title>
				<path d="M0 841.89 L45.35 841.89 L0 841.89 Z" class="st1"/>
			</g>
			<g id="shape3-4" v:mID="3" v:groupContext="shape">
				<title>Лист.3</title>
				<path d="M0 841.89 L45.35 841.89 L0 841.89 Z" class="st2"/>
				<path d="M0 841.89 L45.35 841.89" class="st3"/>
			</g>
		</g>
		<g id="group4-7" transform="translate(824.851,732.105) rotate(135)" v:mID="4" v:groupContext="group">
			<title>Лист.4</title>
			<g id="shape5-8" v:mID="5" v:groupContext="shape">
				<title>Лист.5</title>
				<path d="M0 841.89 L7.93 841.89 L0 841.89 Z" class="st1"/>
			</g>
			<g id="shape6-10" v:mID="6" v:groupContext="shape">
				<title>Лист.6</title>
				<path d="M0 841.89 L7.93 841.89 L0 841.89 Z" class="st2"/>
				<path d="M0 841.89 L7.93 841.89" class="st3"/>
			</g>
		</g>
		<g id="group7-13" transform="translate(824.851,738.247) rotate(135)" v:mID="7" v:groupContext="group">
			<title>Лист.7</title>
			<g id="shape8-14" v:mID="8" v:groupContext="shape">
				<title>Лист.8</title>
				<path d="M0 841.89 L7.93 841.89 L0 841.89 Z" class="st1"/>
			</g>
			<g id="shape9-16" v:mID="9" v:groupContext="shape">
				<title>Лист.9</title>
				<path d="M0 841.89 L7.93 841.89 L0 841.89 Z" class="st2"/>
				<path d="M0 841.89 L7.93 841.89" class="st3"/>
			</g>
		</g>
		<g id="group10-19" transform="translate(824.851,744.861) rotate(135)" v:mID="10" v:groupContext="group">
			<title>Лист.10</title>
			<g id="shape11-20" v:mID="11" v:groupContext="shape">
				<title>Лист.11</title>
				<path d="M0 841.89 L7.93 841.89 L0 841.89 Z" class="st1"/>
			</g>
			<g id="shape12-22" v:mID="12" v:groupContext="shape">
				<title>Лист.12</title>
				<path d="M0 841.89 L7.93 841.89 L0 841.89 Z" class="st2"/>
				<path d="M0 841.89 L7.93 841.89" class="st3"/>
			</g>
		</g>
		<g id="group13-25" transform="translate(824.851,751.298) rotate(135)" v:mID="13" v:groupContext="group">
			<title>Лист.13</title>
			<g id="shape14-26" v:mID="14" v:groupContext="shape">
				<title>Лист.14</title>
				<path d="M0 841.89 L7.93 841.89 L0 841.89 Z" class="st1"/>
			</g>
			<g id="shape15-28" v:mID="15" v:groupContext="shape">
				<title>Лист.15</title>
				<path d="M0 841.89 L7.93 841.89 L0 841.89 Z" class="st2"/>
				<path d="M0 841.89 L7.93 841.89" class="st3"/>
			</g>
		</g>
		<g id="group16-31" transform="translate(824.851,757.617) rotate(135)" v:mID="16" v:groupContext="group">
			<title>Лист.16</title>
			<g id="shape17-32" v:mID="17" v:groupContext="shape">
				<title>Лист.17</title>
				<path d="M0 841.89 L7.93 841.89 L0 841.89 Z" class="st1"/>
			</g>
			<g id="shape18-34" v:mID="18" v:groupContext="shape">
				<title>Лист.18</title>
				<path d="M0 841.89 L7.93 841.89 L0 841.89 Z" class="st2"/>
				<path d="M0 841.89 L7.93 841.89" class="st3"/>
			</g>
		</g>
		<g id="group19-37" transform="translate(824.851,764.704) rotate(135)" v:mID="19" v:groupContext="group">
			<title>Лист.19</title>
			<g id="shape20-38" v:mID="20" v:groupContext="shape">
				<title>Лист.20</title>
				<path d="M0 841.89 L7.93 841.89 L0 841.89 Z" class="st1"/>
			</g>
			<g id="shape21-40" v:mID="21" v:groupContext="shape">
				<title>Лист.21</title>
				<path d="M0 841.89 L7.93 841.89 L0 841.89 Z" class="st2"/>
				<path d="M0 841.89 L7.93 841.89" class="st3"/>
			</g>
		</g>
		<g id="group22-43" transform="translate(824.851,771.79) rotate(135)" v:mID="22" v:groupContext="group">
			<title>Лист.22</title>
			<g id="shape23-44" v:mID="23" v:groupContext="shape">
				<title>Лист.23</title>
				<path d="M0 841.89 L7.93 841.89 L0 841.89 Z" class="st1"/>
			</g>
			<g id="shape24-46" v:mID="24" v:groupContext="shape">
				<title>Лист.24</title>
				<path d="M0 841.89 L7.93 841.89 L0 841.89 Z" class="st2"/>
				<path d="M0 841.89 L7.93 841.89" class="st3"/>
			</g>
		</g>
		<g id="group25-49" transform="translate(1225.07,120.815) rotate(90)" v:mID="25" v:groupContext="group">
			<title>Лист.25</title>
			<g id="shape26-50" v:mID="26" v:groupContext="shape">
				<title>Лист.26</title>
				<path d="M0 841.89 L7.03 841.89 L0 841.89 Z" class="st1"/>
			</g>
			<g id="shape27-52" v:mID="27" v:groupContext="shape">
				<title>Лист.27</title>
				<path d="M0 841.89 L7.03 841.89 L0 841.89 Z" class="st2"/>
				<path d="M0 841.89 L7.03 841.89" class="st3"/>
			</g>
		</g>
		<g id="group28-55" transform="translate(978.489,723.146) rotate(135)" v:mID="28" v:groupContext="group">
			<title>Лист.28</title>
			<g id="shape29-56" v:mID="29" v:groupContext="shape">
				<title>Лист.29</title>
				<path d="M0 841.89 L11.87 841.89 L0 841.89 Z" class="st1"/>
			</g>
			<g id="shape30-58" v:mID="30" v:groupContext="shape">
				<title>Лист.30</title>
				<path d="M0 841.89 L11.87 841.89 L0 841.89 Z" class="st2"/>
				<path d="M0 841.89 L11.87 841.89" class="st3"/>
			</g>
		</g>
		<g id="group31-61" transform="translate(374.793,-705.653)" v:mID="31" v:groupContext="group">
			<title>Лист.31</title>
			<g id="shape32-62" v:mID="32" v:groupContext="shape">
				<title>Лист.32</title>
				<path d="M0 841.89 L16.9 841.89 L0 841.89 Z" class="st1"/>
			</g>
			<g id="shape33-64" v:mID="33" v:groupContext="shape">
				<title>Лист.33</title>
				<path d="M0 841.89 L16.9 841.89 L0 841.89 Z" class="st2"/>
				<path d="M0 841.89 L16.9 841.89" class="st3"/>
			</g>
		</g>
		<g id="group34-67" transform="translate(974.534,-471.391) rotate(44.6206)" v:mID="34" v:groupContext="group">
			<title>Лист.34</title>
			<g id="shape35-68" v:mID="35" v:groupContext="shape">
				<title>Лист.35</title>
				<path d="M0 841.89 L11.95 841.89 L0 841.89 Z" class="st1"/>
			</g>
			<g id="shape36-70" v:mID="36" v:groupContext="shape">
				<title>Лист.36</title>
				<path d="M0 841.89 L11.95 841.89 L0 841.89 Z" class="st2"/>
				<path d="M0 841.89 L11.95 841.89" class="st3"/>
			</g>
		</g>
		<g id="shape37-73" v:mID="37" v:groupContext="shape" transform="translate(283.406,-677.875)">
			<title>Лист.37</title>
			<ellipse cx="2.83465" cy="838.771" rx="2.83465" ry="3.11811" class="st4"/>
		</g>
		<g id="shape38-75" v:mID="38" v:groupContext="shape" transform="translate(323.657,-718.015)">
			<title>Лист.38</title>
			<ellipse cx="2.83465" cy="838.771" rx="2.83465" ry="3.11811" class="st4"/>
		</g>
		<g id="group39-77" transform="translate(-306.375,-431.965) rotate(-45)" v:mID="39" v:groupContext="group">
			<title>Лист.39</title>
			<g id="group40-78" transform="translate(-2.9976E-15,-3.57081)" v:mID="40" v:groupContext="group">
				<title>Лист.40</title>
				<g id="shape41-79" v:mID="41" v:groupContext="shape">
					<title>Лист.41</title>
					<path d="M0 841.89 L10.79 841.89 L0 841.89 Z" class="st1"/>
				</g>
				<g id="shape42-81" v:mID="42" v:groupContext="shape">
					<title>Лист.42</title>
					<path d="M0 841.89 L10.79 841.89 L0 841.89 Z" class="st2"/>
					<path d="M0 841.89 L10.79 841.89" class="st3"/>
				</g>
			</g>
			<g id="group43-84" transform="translate(-584.514,243.012) rotate(-45)" v:mID="43" v:groupContext="group">
				<title>Лист.43</title>
				<g id="shape44-85" v:mID="44" v:groupContext="shape">
					<title>Лист.44</title>
					<path d="M0 841.89 L4.88 841.89 L0 841.89 Z" class="st1"/>
				</g>
				<g id="shape45-87" v:mID="45" v:groupContext="shape">
					<title>Лист.45</title>
					<path d="M0 841.89 L4.88 841.89 L0 841.89 Z" class="st2"/>
					<path d="M0 841.89 L4.88 841.89" class="st3"/>
				</g>
			</g>
			<g id="group46-90" transform="translate(609.544,239.562) rotate(45)" v:mID="46" v:groupContext="group">
				<title>Лист.46</title>
				<g id="shape47-91" v:mID="47" v:groupContext="shape">
					<title>Лист.47</title>
					<path d="M0 841.89 L9.93 841.89 L0 841.89 Z" class="st1"/>
				</g>
				<g id="shape48-93" v:mID="48" v:groupContext="shape">
					<title>Лист.48</title>
					<path d="M0 841.89 L9.93 841.89 L0 841.89 Z" class="st2"/>
					<path d="M0 841.89 L9.93 841.89" class="st3"/>
				</g>
			</g>
			<g id="group49-96" transform="translate(-573.91,246.582) rotate(-45)" v:mID="49" v:groupContext="group">
				<title>Лист.49</title>
				<g id="shape50-97" v:mID="50" v:groupContext="shape">
					<title>Лист.50</title>
					<path d="M0 841.89 L9.93 841.89 L0 841.89 Z" class="st1"/>
				</g>
				<g id="shape51-99" v:mID="51" v:groupContext="shape">
					<title>Лист.51</title>
					<path d="M0 841.89 L9.93 841.89 L0 841.89 Z" class="st2"/>
					<path d="M0 841.89 L9.93 841.89" class="st3"/>
				</g>
			</g>
			<g id="group52-102" transform="translate(623.718,239.562) rotate(45)" v:mID="52" v:groupContext="group">
				<title>Лист.52</title>
				<g id="shape53-103" v:mID="53" v:groupContext="shape">
					<title>Лист.53</title>
					<path d="M0 841.89 L9.93 841.89 L0 841.89 Z" class="st1"/>
				</g>
				<g id="shape54-105" v:mID="54" v:groupContext="shape">
					<title>Лист.54</title>
					<path d="M0 841.89 L9.93 841.89 L0 841.89 Z" class="st2"/>
					<path d="M0 841.89 L9.93 841.89" class="st3"/>
				</g>
			</g>
			<g id="group55-108" transform="translate(-559.737,246.582) rotate(-45)" v:mID="55" v:groupContext="group">
				<title>Лист.55</title>
				<g id="shape56-109" v:mID="56" v:groupContext="shape">
					<title>Лист.56</title>
					<path d="M0 841.89 L10.09 841.89 L0 841.89 Z" class="st1"/>
				</g>
				<g id="shape57-111" v:mID="57" v:groupContext="shape">
					<title>Лист.57</title>
					<path d="M0 841.89 L10.09 841.89 L0 841.89 Z" class="st2"/>
					<path d="M0 841.89 L10.09 841.89" class="st3"/>
				</g>
			</g>
			<g id="group58-114" transform="translate(46.2643,-3.57081)" v:mID="58" v:groupContext="group">
				<title>Лист.58</title>
				<g id="shape59-115" v:mID="59" v:groupContext="shape">
					<title>Лист.59</title>
					<path d="M0 841.89 L10.43 841.89 L0 841.89 Z" class="st1"/>
				</g>
				<g id="shape60-117" v:mID="60" v:groupContext="shape">
					<title>Лист.60</title>
					<path d="M0 841.89 L10.43 841.89 L0 841.89 Z" class="st2"/>
					<path d="M0 841.89 L10.43 841.89" class="st3"/>
				</g>
			</g>
			<g id="group61-120" transform="translate(638.005,239.449) rotate(45)" v:mID="61" v:groupContext="group">
				<title>Лист.61</title>
				<g id="shape62-121" v:mID="62" v:groupContext="shape">
					<title>Лист.62</title>
					<path d="M0 841.89 L5.04 841.89 L0 841.89 Z" class="st1"/>
				</g>
				<g id="shape63-123" v:mID="63" v:groupContext="shape">
					<title>Лист.63</title>
					<path d="M0 841.89 L5.04 841.89 L0 841.89 Z" class="st2"/>
					<path d="M0 841.89 L5.04 841.89" class="st3"/>
				</g>
			</g>
		</g>
		<g id="group64-126" transform="translate(229.547,-677.423)" v:mID="64" v:groupContext="group">
			<title>Лист.64</title>
			<g id="group65-127" transform="translate(-2.9976E-15,-3.57081)" v:mID="65" v:groupContext="group">
				<title>Лист.65</title>
				<g id="shape66-128" v:mID="66" v:groupContext="shape">
					<title>Лист.66</title>
					<path d="M0 841.89 L10.79 841.89 L0 841.89 Z" class="st1"/>
				</g>
				<g id="shape67-130" v:mID="67" v:groupContext="shape">
					<title>Лист.67</title>
					<path d="M0 841.89 L10.79 841.89 L0 841.89 Z" class="st2"/>
					<path d="M0 841.89 L10.79 841.89" class="st3"/>
				</g>
			</g>
			<g id="group68-133" transform="translate(-584.514,243.012) rotate(-45)" v:mID="68" v:groupContext="group">
				<title>Лист.68</title>
				<g id="shape69-134" v:mID="69" v:groupContext="shape">
					<title>Лист.69</title>
					<path d="M0 841.89 L4.88 841.89 L0 841.89 Z" class="st1"/>
				</g>
				<g id="shape70-136" v:mID="70" v:groupContext="shape">
					<title>Лист.70</title>
					<path d="M0 841.89 L4.88 841.89 L0 841.89 Z" class="st2"/>
					<path d="M0 841.89 L4.88 841.89" class="st3"/>
				</g>
			</g>
			<g id="group71-139" transform="translate(609.544,239.562) rotate(45)" v:mID="71" v:groupContext="group">
				<title>Лист.71</title>
				<g id="shape72-140" v:mID="72" v:groupContext="shape">
					<title>Лист.72</title>
					<path d="M0 841.89 L9.93 841.89 L0 841.89 Z" class="st1"/>
				</g>
				<g id="shape73-142" v:mID="73" v:groupContext="shape">
					<title>Лист.73</title>
					<path d="M0 841.89 L9.93 841.89 L0 841.89 Z" class="st2"/>
					<path d="M0 841.89 L9.93 841.89" class="st3"/>
				</g>
			</g>
			<g id="group74-145" transform="translate(-573.91,246.582) rotate(-45)" v:mID="74" v:groupContext="group">
				<title>Лист.74</title>
				<g id="shape75-146" v:mID="75" v:groupContext="shape">
					<title>Лист.75</title>
					<path d="M0 841.89 L9.93 841.89 L0 841.89 Z" class="st1"/>
				</g>
				<g id="shape76-148" v:mID="76" v:groupContext="shape">
					<title>Лист.76</title>
					<path d="M0 841.89 L9.93 841.89 L0 841.89 Z" class="st2"/>
					<path d="M0 841.89 L9.93 841.89" class="st3"/>
				</g>
			</g>
			<g id="group77-151" transform="translate(623.718,239.562) rotate(45)" v:mID="77" v:groupContext="group">
				<title>Лист.77</title>
				<g id="shape78-152" v:mID="78" v:groupContext="shape">
					<title>Лист.78</title>
					<path d="M0 841.89 L9.93 841.89 L0 841.89 Z" class="st1"/>
				</g>
				<g id="shape79-154" v:mID="79" v:groupContext="shape">
					<title>Лист.79</title>
					<path d="M0 841.89 L9.93 841.89 L0 841.89 Z" class="st2"/>
					<path d="M0 841.89 L9.93 841.89" class="st3"/>
				</g>
			</g>
			<g id="group80-157" transform="translate(-559.737,246.582) rotate(-45)" v:mID="80" v:groupContext="group">
				<title>Лист.80</title>
				<g id="shape81-158" v:mID="81" v:groupContext="shape">
					<title>Лист.81</title>
					<path d="M0 841.89 L10.09 841.89 L0 841.89 Z" class="st1"/>
				</g>
				<g id="shape82-160" v:mID="82" v:groupContext="shape">
					<title>Лист.82</title>
					<path d="M0 841.89 L10.09 841.89 L0 841.89 Z" class="st2"/>
					<path d="M0 841.89 L10.09 841.89" class="st3"/>
				</g>
			</g>
			<g id="group83-163" transform="translate(46.2643,-3.57081)" v:mID="83" v:groupContext="group">
				<title>Лист.83</title>
				<g id="shape84-164" v:mID="84" v:groupContext="shape">
					<title>Лист.84</title>
					<path d="M0 841.89 L10.43 841.89 L0 841.89 Z" class="st1"/>
				</g>
				<g id="shape85-166" v:mID="85" v:groupContext="shape">
					<title>Лист.85</title>
					<path d="M0 841.89 L10.43 841.89 L0 841.89 Z" class="st2"/>
					<path d="M0 841.89 L10.43 841.89" class="st3"/>
				</g>
			</g>
			<g id="group86-169" transform="translate(638.005,239.449) rotate(45)" v:mID="86" v:groupContext="group">
				<title>Лист.86</title>
				<g id="shape87-170" v:mID="87" v:groupContext="shape">
					<title>Лист.87</title>
					<path d="M0 841.89 L5.04 841.89 L0 841.89 Z" class="st1"/>
				</g>
				<g id="shape88-172" v:mID="88" v:groupContext="shape">
					<title>Лист.88</title>
					<path d="M0 841.89 L5.04 841.89 L0 841.89 Z" class="st2"/>
					<path d="M0 841.89 L5.04 841.89" class="st3"/>
				</g>
			</g>
		</g>
		<g id="group89-175" transform="translate(326.492,-717.563)" v:mID="89" v:groupContext="group">
			<title>Лист.89</title>
			<g id="group90-176" transform="translate(0,-3.57081)" v:mID="90" v:groupContext="group">
				<title>Лист.90</title>
				<g id="shape91-177" v:mID="91" v:groupContext="shape">
					<title>Лист.91</title>
					<path d="M0 841.89 L10.79 841.89 L0 841.89 Z" class="st1"/>
				</g>
				<g id="shape92-179" v:mID="92" v:groupContext="shape">
					<title>Лист.92</title>
					<path d="M0 841.89 L10.79 841.89 L0 841.89 Z" class="st2"/>
					<path d="M0 841.89 L10.79 841.89" class="st3"/>
				</g>
			</g>
			<g id="group93-182" transform="translate(-584.514,243.012) rotate(-45)" v:mID="93" v:groupContext="group">
				<title>Лист.93</title>
				<g id="shape94-183" v:mID="94" v:groupContext="shape">
					<title>Лист.94</title>
					<path d="M0 841.89 L4.88 841.89 L0 841.89 Z" class="st1"/>
				</g>
				<g id="shape95-185" v:mID="95" v:groupContext="shape">
					<title>Лист.95</title>
					<path d="M0 841.89 L4.88 841.89 L0 841.89 Z" class="st2"/>
					<path d="M0 841.89 L4.88 841.89" class="st3"/>
				</g>
			</g>
			<g id="group96-188" transform="translate(609.544,239.562) rotate(45)" v:mID="96" v:groupContext="group">
				<title>Лист.96</title>
				<g id="shape97-189" v:mID="97" v:groupContext="shape">
					<title>Лист.97</title>
					<path d="M0 841.89 L9.93 841.89 L0 841.89 Z" class="st1"/>
				</g>
				<g id="shape98-191" v:mID="98" v:groupContext="shape">
					<title>Лист.98</title>
					<path d="M0 841.89 L9.93 841.89 L0 841.89 Z" class="st2"/>
					<path d="M0 841.89 L9.93 841.89" class="st3"/>
				</g>
			</g>
			<g id="group99-194" transform="translate(-573.91,246.582) rotate(-45)" v:mID="99" v:groupContext="group">
				<title>Лист.99</title>
				<g id="shape100-195" v:mID="100" v:groupContext="shape">
					<title>Лист.100</title>
					<path d="M0 841.89 L9.93 841.89 L0 841.89 Z" class="st1"/>
				</g>
				<g id="shape101-197" v:mID="101" v:groupContext="shape">
					<title>Лист.101</title>
					<path d="M0 841.89 L9.93 841.89 L0 841.89 Z" class="st2"/>
					<path d="M0 841.89 L9.93 841.89" class="st3"/>
				</g>
			</g>
			<g id="group102-200" transform="translate(623.718,239.562) rotate(45)" v:mID="102" v:groupContext="group">
				<title>Лист.102</title>
				<g id="shape103-201" v:mID="103" v:groupContext="shape">
					<title>Лист.103</title>
					<path d="M0 841.89 L9.93 841.89 L0 841.89 Z" class="st1"/>
				</g>
				<g id="shape104-203" v:mID="104" v:groupContext="shape">
					<title>Лист.104</title>
					<path d="M0 841.89 L9.93 841.89 L0 841.89 Z" class="st2"/>
					<path d="M0 841.89 L9.93 841.89" class="st3"/>
				</g>
			</g>
			<g id="group105-206" transform="translate(-559.737,246.582) rotate(-45)" v:mID="105" v:groupContext="group">
				<title>Лист.105</title>
				<g id="shape106-207" v:mID="106" v:groupContext="shape">
					<title>Лист.106</title>
					<path d="M0 841.89 L10.09 841.89 L0 841.89 Z" class="st1"/>
				</g>
				<g id="shape107-209" v:mID="107" v:groupContext="shape">
					<title>Лист.107</title>
					<path d="M0 841.89 L10.09 841.89 L0 841.89 Z" class="st2"/>
					<path d="M0 841.89 L10.09 841.89" class="st3"/>
				</g>
			</g>
			<g id="group108-212" transform="translate(46.2643,-3.57081)" v:mID="108" v:groupContext="group">
				<title>Лист.108</title>
				<g id="shape109-213" v:mID="109" v:groupContext="shape">
					<title>Лист.109</title>
					<path d="M0 841.89 L10.43 841.89 L0 841.89 Z" class="st1"/>
				</g>
				<g id="shape110-215" v:mID="110" v:groupContext="shape">
					<title>Лист.110</title>
					<path d="M0 841.89 L10.43 841.89 L0 841.89 Z" class="st2"/>
					<path d="M0 841.89 L10.43 841.89" class="st3"/>
				</g>
			</g>
			<g id="group111-218" transform="translate(638.005,239.449) rotate(45)" v:mID="111" v:groupContext="group">
				<title>Лист.111</title>
				<g id="shape112-219" v:mID="112" v:groupContext="shape">
					<title>Лист.112</title>
					<path d="M0 841.89 L5.04 841.89 L0 841.89 Z" class="st1"/>
				</g>
				<g id="shape113-221" v:mID="113" v:groupContext="shape">
					<title>Лист.113</title>
					<path d="M0 841.89 L5.04 841.89 L0 841.89 Z" class="st2"/>
					<path d="M0 841.89 L5.04 841.89" class="st3"/>
				</g>
			</g>
		</g>
		<g id="shape114-224" v:mID="114" v:groupContext="shape" transform="translate(1168.41,87.8739) rotate(90)">
			<title>Лист.114</title>
			<path d="M0 841.89 L25.93 841.89 L29.76 841.89" class="st5"/>
		</g>
		<g id="shape115-230" v:mID="115" v:groupContext="shape" transform="translate(326.492,-744.093)">
			<title>Лист.115</title>
			<desc>Fext</desc>
			<v:userDefs/>
			<v:textBlock v:margins="rect(3.99999,3.99999,3.99999,3.99999)" v:tabSpace="42.5196"/>
			<v:textRect cx="16.0016" cy="838.771" width="32.01" height="6.23621"/>
			<rect x="0" y="835.653" width="32.0039" height="6.23621" class="st7"/>
			<text x="5.65" y="842.37" class="st8" v:langID="1033"><v:paragraph v:horizAlign="1"/><v:tabList/>Fext</text>		</g>
		<g id="shape116-233" v:mID="116" v:groupContext="shape" transform="translate(237.816,-670.109)">
			<title>Лист.116</title>
			<desc>e1</desc>
			<v:userDefs/>
			<v:textBlock v:margins="rect(3.99999,3.99999,3.99999,3.99999)" v:tabSpace="42.5196"/>
			<v:textRect cx="20.0774" cy="838.771" width="40.16" height="6.23621"/>
			<rect x="0" y="835.653" width="40.1554" height="6.23621" class="st7"/>
			<text x="14.05" y="842.37" class="st8" v:langID="1033"><v:paragraph v:horizAlign="1"/><v:tabList/>e1</text>		</g>
		<g id="shape117-236" v:mID="117" v:groupContext="shape" transform="translate(301.89,-693.07)">
			<title>Лист.117</title>
			<desc>e2</desc>
			<v:userDefs/>
			<v:textBlock v:margins="rect(3.99999,3.99999,3.99999,3.99999)" v:tabSpace="42.5196"/>
			<v:textRect cx="20.0774" cy="838.771" width="40.16" height="6.23621"/>
			<rect x="0" y="835.653" width="40.1554" height="6.23621" class="st7"/>
			<text x="14.05" y="842.37" class="st8" v:langID="1033"><v:paragraph v:horizAlign="1"/><v:tabList/>e2</text>		</g>
		<g id="shape118-239" v:mID="118" v:groupContext="shape" transform="translate(334.685,-710.078)">
			<title>Лист.118</title>
			<desc>e3</desc>
			<v:userDefs/>
			<v:textBlock v:margins="rect(3.99999,3.99999,3.99999,3.99999)" v:tabSpace="42.5196"/>
			<v:textRect cx="20.0774" cy="838.771" width="40.16" height="6.23621"/>
			<rect x="0" y="835.653" width="40.1554" height="6.23621" class="st7"/>
			<text x="14.05" y="842.37" class="st8" v:langID="1033"><v:paragraph v:horizAlign="1"/><v:tabList/>e3</text>		</g>
		<g id="shape119-242" v:mID="119" v:groupContext="shape" transform="translate(270.709,-691.244)">
			<title>Лист.119</title>
			<desc>n2</desc>
			<v:userDefs/>
			<v:textBlock v:margins="rect(3.99999,3.99999,3.99999,3.99999)" v:tabSpace="42.5196"/>
			<v:textRect cx="11.3382" cy="838.771" width="22.68" height="6.23621"/>
			<rect x="0" y="835.653" width="22.6772" height="6.23621" class="st7"/>
			<text x="5.14" y="842.37" class="st8" v:langID="1033"><v:paragraph v:horizAlign="1"/><v:tabList/>n2</text>		</g>
		<g id="shape120-245" v:mID="120" v:groupContext="shape" transform="translate(320.512,-709.511)">
			<title>Лист.120</title>
			<desc>n3</desc>
			<v:userDefs/>
			<v:textBlock v:margins="rect(3.99999,3.99999,3.99999,3.99999)" v:tabSpace="42.5196"/>
			<v:textRect cx="11.3382" cy="838.771" width="22.68" height="6.23621"/>
			<rect x="0" y="835.653" width="22.6772" height="6.23621" class="st7"/>
			<text x="5.14" y="842.37" class="st8" v:langID="1033"><v:paragraph v:horizAlign="1"/><v:tabList/>n3</text>		</g>
		<g id="shape121-248" v:mID="121" v:groupContext="shape" transform="translate(226.772,-678.33)">
			<title>Лист.121</title>
			<ellipse cx="2.83465" cy="838.771" rx="2.83465" ry="3.11811" class="st4"/>
		</g>
		<g id="shape122-250" v:mID="122" v:groupContext="shape" transform="translate(379.843,-718.015)">
			<title>Лист.122</title>
			<ellipse cx="2.83465" cy="838.771" rx="2.83465" ry="3.11811" class="st4"/>
		</g>
		<g id="shape123-252" v:mID="123" v:groupContext="shape" transform="translate(226.772,-688.818)">
			<title>Лист.123</title>
			<desc>n1</desc>
			<v:userDefs/>
			<v:textBlock v:margins="rect(3.99999,3.99999,3.99999,3.99999)" v:tabSpace="42.5196"/>
			<v:textRect cx="11.3382" cy="838.771" width="22.68" height="6.23621"/>
			<rect x="0" y="835.653" width="22.6772" height="6.23621" class="st7"/>
			<text x="5.14" y="842.37" class="st8" v:langID="1033"><v:paragraph v:horizAlign="1"/><v:tabList/>n1</text>		</g>
		<g id="shape124-255" v:mID="124" v:groupContext="shape" transform="translate(375.591,-728.219)">
			<title>Лист.124</title>
			<desc>n4</desc>
			<v:userDefs/>
			<v:textBlock v:margins="rect(3.99999,3.99999,3.99999,3.99999)" v:tabSpace="42.5196"/>
			<v:textRect cx="11.3382" cy="838.771" width="22.68" height="6.23621"/>
			<rect x="0" y="835.653" width="22.6772" height="6.23621" class="st7"/>
			<text x="5.14" y="842.37" class="st8" v:langID="1033"><v:paragraph v:horizAlign="1"/><v:tabList/>n4</text>		</g>
		<g id="shape125-258" v:mID="125" v:groupContext="shape" transform="translate(1048.19,72.2834) rotate(90)">
			<title>Лист.125</title>
			<path d="M0 841.89 L123.66 841.89" class="st9"/>
		</g>
		<g id="shape126-264" v:mID="126" v:groupContext="shape" transform="translate(411.024,1037.83) rotate(180)">
			<title>Лист.126</title>
			<path d="M0 841.89 L204.72 841.89" class="st9"/>
		</g>
		<g id="shape127-269" v:mID="127" v:groupContext="shape" transform="translate(192.756,-763.369)">
			<title>Лист.127</title>
			<desc>Y</desc>
			<v:userDefs/>
			<v:textBlock v:margins="rect(3.99999,3.99999,3.99999,3.99999)" v:tabSpace="42.5196"/>
			<v:textRect cx="5.78656" cy="838.771" width="11.58" height="6.23621"/>
			<rect x="0" y="835.653" width="11.5738" height="6.23621" class="st7"/>
			<text x="4" y="842.37" class="st8" v:langID="1033"><v:paragraph v:horizAlign="1"/><v:tabList/>Y</text>		</g>
		<g id="shape128-272" v:mID="128" v:groupContext="shape" transform="translate(405.119,-634.393)">
			<title>Лист.128</title>
			<desc>X</desc>
			<v:userDefs/>
			<v:textBlock v:margins="rect(3.99999,3.99999,3.99999,3.99999)" v:tabSpace="42.5196"/>
			<v:textRect cx="5.78656" cy="838.771" width="11.58" height="6.23621"/>
			<rect x="0" y="835.653" width="11.5738" height="6.23621" class="st7"/>
			<text x="4" y="842.37" class="st8" v:langID="1033"><v:paragraph v:horizAlign="1"/><v:tabList/>X</text>		</g>
		<g id="shape129-275" v:mID="129" v:groupContext="shape" transform="translate(797.477,795.347) rotate(135.396)">
			<title>Лист.129</title>
			<path d="M0 841.89 L35.83 841.89" class="st10"/>
		</g>
		<g id="shape130-281" v:mID="130" v:groupContext="shape" transform="translate(186.851,-617.386)">
			<title>Лист.130</title>
			<desc>X</desc>
			<v:userDefs/>
			<v:textBlock v:margins="rect(3.99999,3.99999,3.99999,3.99999)" v:tabSpace="42.5196"/>
			<v:textRect cx="5.78656" cy="838.771" width="11.58" height="6.23621"/>
			<rect x="0" y="835.653" width="11.5738" height="6.23621" class="st7"/>
			<text x="4" y="842.37" class="st8" v:langID="1033"><v:paragraph v:horizAlign="1"/><v:tabList/>Z</text>		</g>
	</g>
</svg>
