<?xml version="1.0" encoding="UTF-8" standalone="no"?>
<!DOCTYPE svg PUBLIC "-//W3C//DTD SVG 1.1//EN" "http://www.w3.org/Graphics/SVG/1.1/DTD/svg11.dtd">
<!-- Generated by Microsoft Visio, SVG Export systemAtworld.svg systemInWorld -->
<svg xmlns="http://www.w3.org/2000/svg" xmlns:xlink="http://www.w3.org/1999/xlink" xmlns:ev="http://www.w3.org/2001/xml-events"
		xmlns:v="http://schemas.microsoft.com/visio/2003/SVGExtensions/" width="8.26772in" height="11.6929in"
		viewBox="0 0 595.276 841.889" xml:space="preserve" color-interpolation-filters="sRGB" class="st11">
	<v:documentProperties v:langID="1033">
		<v:userDefs>
			<v:ud v:nameU="msvNoAutoConnect" v:val="VT0(1):26"/>
		</v:userDefs>
	</v:documentProperties>

	<style type="text/css">
	<![CDATA[
		.st1 {fill:none}
		.st2 {stroke:#000000;stroke-linecap:round;stroke-linejoin:round;stroke-width:0.749999}
		.st3 {fill:none;stroke:#000000;stroke-linecap:round;stroke-linejoin:round;stroke-width:0.749999}
		.st4 {marker-end:url(#mrkr5-121);stroke:#000000;stroke-linecap:round;stroke-linejoin:round;stroke-width:0.749999}
		.st5 {fill:#000000;fill-opacity:1;stroke:#000000;stroke-opacity:1;stroke-width:0.34246543245673}
		.st6 {fill:none;stroke:none;stroke-linecap:round;stroke-linejoin:round;stroke-width:0.749999}
		.st7 {fill:#000000;font-family:Calibri;font-size:1.00001em}
		.st8 {marker-start:url(#mrkr3-155);stroke:#000000;stroke-linecap:round;stroke-linejoin:round;stroke-width:0.749999}
		.st9 {marker-end:url(#mrkr3-172);stroke:#000000;stroke-linecap:round;stroke-linejoin:round;stroke-width:0.75}
		.st10 {fill:#000000;fill-opacity:1;stroke:#000000;stroke-opacity:1;stroke-width:0.34246575342466}
		.st11 {fill:none;fill-rule:evenodd;font-size:12px;overflow:visible;stroke-linecap:square;stroke-miterlimit:3}
	]]>
	</style>

	<defs id="Markers">
		<g id="lend5">
			<path d="M 2 1 L 0 0 L 1.98117 -0.993387 C 1.67173 -0.364515 1.67301 0.372641 1.98465 1.00043 " style="stroke:none"/>
		</g>
		<marker id="mrkr5-121" class="st5" v:arrowType="5" v:arrowSize="0" v:setback="0" refX="-0" orient="auto"
				markerUnits="strokeWidth" overflow="visible">
			<use xlink:href="#lend5" transform="scale(-2.9200027367035,-2.9200027367035) "/>
		</marker>
		<g id="lend3">
			<path d="M 2 1 L 0 0 L 2 -1 " style="stroke-linecap:round;stroke-linejoin:round;fill:none"/>
		</g>
		<marker id="mrkr3-155" class="st5" v:arrowType="3" v:arrowSize="0" orient="auto" markerUnits="strokeWidth"
				overflow="visible">
			<use xlink:href="#lend3" transform="scale(2.9200027367035) "/>
		</marker>
		<marker id="mrkr3-172" class="st10" v:arrowType="3" v:arrowSize="0" orient="auto" markerUnits="strokeWidth"
				overflow="visible">
			<use xlink:href="#lend3" transform="scale(-2.92,-2.92) "/>
		</marker>
	</defs>
	<g v:mID="0" v:index="1" v:groupContext="foregroundPage">
		<title>systemInWorld</title>
		<v:pageProperties v:drawingScale="0.0393701" v:pageScale="0.0393701" v:drawingUnits="24" v:shadowOffsetX="8.50393"
				v:shadowOffsetY="-8.50393"/>
		<g id="shape1-1" v:mID="1" v:groupContext="shape" transform="translate(1071.44,136.801) rotate(90)">
			<title>Sheet.1</title>
			<path d="M0 841.89 L45.35 841.89 L0 841.89 Z" class="st1"/>
			<path d="M0 841.89 L45.35 841.89" class="st2"/>
		</g>
		<g id="shape2-4" v:mID="2" v:groupContext="shape" transform="translate(824.852,732.106) rotate(135)">
			<title>Sheet.2</title>
			<path d="M0 841.89 L7.93 841.89 L0 841.89 Z" class="st1"/>
			<path d="M0 841.89 L7.93 841.89" class="st2"/>
		</g>
		<g id="shape3-7" v:mID="3" v:groupContext="shape" transform="translate(824.852,738.248) rotate(135)">
			<title>Sheet.3</title>
			<path d="M0 841.89 L7.93 841.89 L0 841.89 Z" class="st1"/>
			<path d="M0 841.89 L7.93 841.89" class="st2"/>
		</g>
		<g id="shape4-10" v:mID="4" v:groupContext="shape" transform="translate(824.852,744.862) rotate(135)">
			<title>Sheet.4</title>
			<path d="M0 841.89 L7.93 841.89 L0 841.89 Z" class="st1"/>
			<path d="M0 841.89 L7.93 841.89" class="st2"/>
		</g>
		<g id="shape5-13" v:mID="5" v:groupContext="shape" transform="translate(824.852,751.299) rotate(135)">
			<title>Sheet.5</title>
			<path d="M0 841.89 L7.93 841.89 L0 841.89 Z" class="st1"/>
			<path d="M0 841.89 L7.93 841.89" class="st2"/>
		</g>
		<g id="shape6-16" v:mID="6" v:groupContext="shape" transform="translate(824.852,757.618) rotate(135)">
			<title>Sheet.6</title>
			<path d="M0 841.89 L7.93 841.89 L0 841.89 Z" class="st1"/>
			<path d="M0 841.89 L7.93 841.89" class="st2"/>
		</g>
		<g id="shape7-19" v:mID="7" v:groupContext="shape" transform="translate(824.852,764.705) rotate(135)">
			<title>Sheet.7</title>
			<path d="M0 841.89 L7.93 841.89 L0 841.89 Z" class="st1"/>
			<path d="M0 841.89 L7.93 841.89" class="st2"/>
		</g>
		<g id="shape8-22" v:mID="8" v:groupContext="shape" transform="translate(824.852,771.791) rotate(135)">
			<title>Sheet.8</title>
			<path d="M0 841.89 L7.93 841.89 L0 841.89 Z" class="st1"/>
			<path d="M0 841.89 L7.93 841.89" class="st2"/>
		</g>
		<g id="shape9-25" v:mID="9" v:groupContext="shape" transform="translate(1225.07,120.815) rotate(90)">
			<title>Sheet.9</title>
			<path d="M0 841.89 L7.03 841.89 L0 841.89 Z" class="st1"/>
			<path d="M0 841.89 L7.03 841.89" class="st2"/>
		</g>
		<g id="shape10-28" v:mID="10" v:groupContext="shape" transform="translate(978.49,723.147) rotate(135)">
			<title>Sheet.10</title>
			<path d="M0 841.89 L11.87 841.89 L0 841.89 Z" class="st1"/>
			<path d="M0 841.89 L11.87 841.89" class="st2"/>
		</g>
		<g id="shape11-31" v:mID="11" v:groupContext="shape" transform="translate(374.793,-705.654)">
			<title>Sheet.11</title>
			<path d="M0 841.89 L16.9 841.89 L0 841.89 Z" class="st1"/>
			<path d="M0 841.89 L16.9 841.89" class="st2"/>
		</g>
		<g id="shape12-34" v:mID="12" v:groupContext="shape" transform="translate(974.535,-471.392) rotate(44.6206)">
			<title>Sheet.12</title>
			<path d="M0 841.89 L11.95 841.89 L0 841.89 Z" class="st1"/>
			<path d="M0 841.89 L11.95 841.89" class="st2"/>
		</g>
		<g id="shape13-37" v:mID="13" v:groupContext="shape" transform="translate(283.406,-677.875)">
			<title>Sheet.13</title>
			<ellipse cx="2.83465" cy="838.771" rx="2.83465" ry="3.11811" class="st3"/>
		</g>
		<g id="shape14-39" v:mID="14" v:groupContext="shape" transform="translate(323.657,-718.015)">
			<title>Sheet.14</title>
			<ellipse cx="2.83465" cy="838.771" rx="2.83465" ry="3.11811" class="st3"/>
		</g>
		<g id="group15-41" transform="translate(-306.376,-431.966) rotate(-45)" v:mID="15" v:groupContext="group">
			<title>Sheet.15</title>
			<g id="shape16-42" v:mID="16" v:groupContext="shape" transform="translate(9.99201E-15,-3.57111)">
				<title>Sheet.16</title>
				<path d="M0 841.89 L10.79 841.89 L0 841.89 Z" class="st1"/>
				<path d="M0 841.89 L10.79 841.89" class="st2"/>
			</g>
			<g id="shape17-45" v:mID="17" v:groupContext="shape" transform="translate(-584.515,243.012) rotate(-45)">
				<title>Sheet.17</title>
				<path d="M0 841.89 L4.88 841.89 L0 841.89 Z" class="st1"/>
				<path d="M0 841.89 L4.88 841.89" class="st2"/>
			</g>
			<g id="shape18-48" v:mID="18" v:groupContext="shape" transform="translate(609.545,239.562) rotate(45)">
				<title>Sheet.18</title>
				<path d="M0 841.89 L9.93 841.89 L0 841.89 Z" class="st1"/>
				<path d="M0 841.89 L9.93 841.89" class="st2"/>
			</g>
			<g id="shape19-51" v:mID="19" v:groupContext="shape" transform="translate(-573.911,246.582) rotate(-45)">
				<title>Sheet.19</title>
				<path d="M0 841.89 L9.93 841.89 L0 841.89 Z" class="st1"/>
				<path d="M0 841.89 L9.93 841.89" class="st2"/>
			</g>
			<g id="shape20-54" v:mID="20" v:groupContext="shape" transform="translate(623.719,239.562) rotate(45)">
				<title>Sheet.20</title>
				<path d="M0 841.89 L9.93 841.89 L0 841.89 Z" class="st1"/>
				<path d="M0 841.89 L9.93 841.89" class="st2"/>
			</g>
			<g id="shape21-57" v:mID="21" v:groupContext="shape" transform="translate(-559.738,246.582) rotate(-45)">
				<title>Sheet.21</title>
				<path d="M0 841.89 L10.09 841.89 L0 841.89 Z" class="st1"/>
				<path d="M0 841.89 L10.09 841.89" class="st2"/>
			</g>
			<g id="shape22-60" v:mID="22" v:groupContext="shape" transform="translate(46.2643,-3.57111)">
				<title>Sheet.22</title>
				<path d="M0 841.89 L10.43 841.89 L0 841.89 Z" class="st1"/>
				<path d="M0 841.89 L10.43 841.89" class="st2"/>
			</g>
			<g id="shape23-63" v:mID="23" v:groupContext="shape" transform="translate(638.006,239.449) rotate(45)">
				<title>Sheet.23</title>
				<path d="M0 841.89 L5.04 841.89 L0 841.89 Z" class="st1"/>
				<path d="M0 841.89 L5.04 841.89" class="st2"/>
			</g>
		</g>
		<g id="group24-66" transform="translate(229.547,-677.424)" v:mID="24" v:groupContext="group">
			<title>Sheet.24</title>
			<g id="shape25-67" v:mID="25" v:groupContext="shape" transform="translate(9.99201E-15,-3.57111)">
				<title>Sheet.25</title>
				<path d="M0 841.89 L10.79 841.89 L0 841.89 Z" class="st1"/>
				<path d="M0 841.89 L10.79 841.89" class="st2"/>
			</g>
			<g id="shape26-70" v:mID="26" v:groupContext="shape" transform="translate(-584.515,243.012) rotate(-45)">
				<title>Sheet.26</title>
				<path d="M0 841.89 L4.88 841.89 L0 841.89 Z" class="st1"/>
				<path d="M0 841.89 L4.88 841.89" class="st2"/>
			</g>
			<g id="shape27-73" v:mID="27" v:groupContext="shape" transform="translate(609.545,239.562) rotate(45)">
				<title>Sheet.27</title>
				<path d="M0 841.89 L9.93 841.89 L0 841.89 Z" class="st1"/>
				<path d="M0 841.89 L9.93 841.89" class="st2"/>
			</g>
			<g id="shape28-76" v:mID="28" v:groupContext="shape" transform="translate(-573.911,246.582) rotate(-45)">
				<title>Sheet.28</title>
				<path d="M0 841.89 L9.93 841.89 L0 841.89 Z" class="st1"/>
				<path d="M0 841.89 L9.93 841.89" class="st2"/>
			</g>
			<g id="shape29-79" v:mID="29" v:groupContext="shape" transform="translate(623.719,239.562) rotate(45)">
				<title>Sheet.29</title>
				<path d="M0 841.89 L9.93 841.89 L0 841.89 Z" class="st1"/>
				<path d="M0 841.89 L9.93 841.89" class="st2"/>
			</g>
			<g id="shape30-82" v:mID="30" v:groupContext="shape" transform="translate(-559.738,246.582) rotate(-45)">
				<title>Sheet.30</title>
				<path d="M0 841.89 L10.09 841.89 L0 841.89 Z" class="st1"/>
				<path d="M0 841.89 L10.09 841.89" class="st2"/>
			</g>
			<g id="shape31-85" v:mID="31" v:groupContext="shape" transform="translate(46.2643,-3.57111)">
				<title>Sheet.31</title>
				<path d="M0 841.89 L10.43 841.89 L0 841.89 Z" class="st1"/>
				<path d="M0 841.89 L10.43 841.89" class="st2"/>
			</g>
			<g id="shape32-88" v:mID="32" v:groupContext="shape" transform="translate(638.006,239.449) rotate(45)">
				<title>Sheet.32</title>
				<path d="M0 841.89 L5.04 841.89 L0 841.89 Z" class="st1"/>
				<path d="M0 841.89 L5.04 841.89" class="st2"/>
			</g>
		</g>
		<g id="group33-91" transform="translate(326.492,-717.564)" v:mID="33" v:groupContext="group">
			<title>Sheet.33</title>
			<g id="shape34-92" v:mID="34" v:groupContext="shape" transform="translate(9.99201E-15,-3.57111)">
				<title>Sheet.34</title>
				<path d="M0 841.89 L10.79 841.89 L0 841.89 Z" class="st1"/>
				<path d="M0 841.89 L10.79 841.89" class="st2"/>
			</g>
			<g id="shape35-95" v:mID="35" v:groupContext="shape" transform="translate(-584.515,243.012) rotate(-45)">
				<title>Sheet.35</title>
				<path d="M0 841.89 L4.88 841.89 L0 841.89 Z" class="st1"/>
				<path d="M0 841.89 L4.88 841.89" class="st2"/>
			</g>
			<g id="shape36-98" v:mID="36" v:groupContext="shape" transform="translate(609.545,239.562) rotate(45)">
				<title>Sheet.36</title>
				<path d="M0 841.89 L9.93 841.89 L0 841.89 Z" class="st1"/>
				<path d="M0 841.89 L9.93 841.89" class="st2"/>
			</g>
			<g id="shape37-101" v:mID="37" v:groupContext="shape" transform="translate(-573.911,246.582) rotate(-45)">
				<title>Sheet.37</title>
				<path d="M0 841.89 L9.93 841.89 L0 841.89 Z" class="st1"/>
				<path d="M0 841.89 L9.93 841.89" class="st2"/>
			</g>
			<g id="shape38-104" v:mID="38" v:groupContext="shape" transform="translate(623.719,239.562) rotate(45)">
				<title>Sheet.38</title>
				<path d="M0 841.89 L9.93 841.89 L0 841.89 Z" class="st1"/>
				<path d="M0 841.89 L9.93 841.89" class="st2"/>
			</g>
			<g id="shape39-107" v:mID="39" v:groupContext="shape" transform="translate(-559.738,246.582) rotate(-45)">
				<title>Sheet.39</title>
				<path d="M0 841.89 L10.09 841.89 L0 841.89 Z" class="st1"/>
				<path d="M0 841.89 L10.09 841.89" class="st2"/>
			</g>
			<g id="shape40-110" v:mID="40" v:groupContext="shape" transform="translate(46.2643,-3.57111)">
				<title>Sheet.40</title>
				<path d="M0 841.89 L10.43 841.89 L0 841.89 Z" class="st1"/>
				<path d="M0 841.89 L10.43 841.89" class="st2"/>
			</g>
			<g id="shape41-113" v:mID="41" v:groupContext="shape" transform="translate(638.006,239.449) rotate(45)">
				<title>Sheet.41</title>
				<path d="M0 841.89 L5.04 841.89 L0 841.89 Z" class="st1"/>
				<path d="M0 841.89 L5.04 841.89" class="st2"/>
			</g>
		</g>
		<g id="shape42-116" v:mID="42" v:groupContext="shape" transform="translate(1168.41,87.8739) rotate(90)">
			<title>Sheet.42</title>
			<path d="M0 841.89 L25.93 841.89 L29.76 841.89" class="st4"/>
		</g>
		<g id="shape43-122" v:mID="43" v:groupContext="shape" transform="translate(326.492,-744.093)">
			<title>Sheet.43</title>
			<desc>Fext</desc>
			<v:userDefs/>
			<v:textBlock v:margins="rect(3.99999,3.99999,3.99999,3.99999)" v:tabSpace="42.5196"/>
			<v:textRect cx="16.0016" cy="838.771" width="32.01" height="6.23621"/>
			<rect x="0" y="835.653" width="32.0039" height="6.23621" class="st6"/>
			<text x="5.65" y="842.37" class="st7" v:langID="1033"><v:paragraph v:horizAlign="1"/><v:tabList/>Fext</text>		</g>
		<g id="shape44-125" v:mID="44" v:groupContext="shape" transform="translate(237.816,-670.109)">
			<title>Sheet.44</title>
			<desc>e1</desc>
			<v:userDefs/>
			<v:textBlock v:margins="rect(3.99999,3.99999,3.99999,3.99999)" v:tabSpace="42.5196"/>
			<v:textRect cx="20.0774" cy="838.771" width="40.16" height="6.23621"/>
			<rect x="0" y="835.653" width="40.1554" height="6.23621" class="st6"/>
			<text x="14.05" y="842.37" class="st7" v:langID="1033"><v:paragraph v:horizAlign="1"/><v:tabList/>e1</text>		</g>
		<g id="shape45-128" v:mID="45" v:groupContext="shape" transform="translate(301.89,-693.07)">
			<title>Sheet.45</title>
			<desc>e2</desc>
			<v:userDefs/>
			<v:textBlock v:margins="rect(3.99999,3.99999,3.99999,3.99999)" v:tabSpace="42.5196"/>
			<v:textRect cx="20.0774" cy="838.771" width="40.16" height="6.23621"/>
			<rect x="0" y="835.653" width="40.1554" height="6.23621" class="st6"/>
			<text x="14.05" y="842.37" class="st7" v:langID="1033"><v:paragraph v:horizAlign="1"/><v:tabList/>e2</text>		</g>
		<g id="shape46-131" v:mID="46" v:groupContext="shape" transform="translate(334.685,-710.078)">
			<title>Sheet.46</title>
			<desc>e3</desc>
			<v:userDefs/>
			<v:textBlock v:margins="rect(3.99999,3.99999,3.99999,3.99999)" v:tabSpace="42.5196"/>
			<v:textRect cx="20.0774" cy="838.771" width="40.16" height="6.23621"/>
			<rect x="0" y="835.653" width="40.1554" height="6.23621" class="st6"/>
			<text x="14.05" y="842.37" class="st7" v:langID="1033"><v:paragraph v:horizAlign="1"/><v:tabList/>e3</text>		</g>
		<g id="shape47-134" v:mID="47" v:groupContext="shape" transform="translate(270.709,-691.244)">
			<title>Sheet.47</title>
			<desc>n2</desc>
			<v:userDefs/>
			<v:textBlock v:margins="rect(3.99999,3.99999,3.99999,3.99999)" v:tabSpace="42.5196"/>
			<v:textRect cx="11.3382" cy="838.771" width="22.68" height="6.23621"/>
			<rect x="0" y="835.653" width="22.6772" height="6.23621" class="st6"/>
			<text x="5.14" y="842.37" class="st7" v:langID="1033"><v:paragraph v:horizAlign="1"/><v:tabList/>n2</text>		</g>
		<g id="shape48-137" v:mID="48" v:groupContext="shape" transform="translate(320.512,-709.511)">
			<title>Sheet.48</title>
			<desc>n3</desc>
			<v:userDefs/>
			<v:textBlock v:margins="rect(3.99999,3.99999,3.99999,3.99999)" v:tabSpace="42.5196"/>
			<v:textRect cx="11.3382" cy="838.771" width="22.68" height="6.23621"/>
			<rect x="0" y="835.653" width="22.6772" height="6.23621" class="st6"/>
			<text x="5.14" y="842.37" class="st7" v:langID="1033"><v:paragraph v:horizAlign="1"/><v:tabList/>n3</text>		</g>
		<g id="shape49-140" v:mID="49" v:groupContext="shape" transform="translate(226.772,-678.33)">
			<title>Sheet.49</title>
			<ellipse cx="2.83465" cy="838.771" rx="2.83465" ry="3.11811" class="st3"/>
		</g>
		<g id="shape50-142" v:mID="50" v:groupContext="shape" transform="translate(379.843,-718.015)">
			<title>Sheet.50</title>
			<ellipse cx="2.83465" cy="838.771" rx="2.83465" ry="3.11811" class="st3"/>
		</g>
		<g id="shape51-144" v:mID="51" v:groupContext="shape" transform="translate(226.772,-688.818)">
			<title>Sheet.51</title>
			<desc>n1</desc>
			<v:userDefs/>
			<v:textBlock v:margins="rect(3.99999,3.99999,3.99999,3.99999)" v:tabSpace="42.5196"/>
			<v:textRect cx="11.3382" cy="838.771" width="22.68" height="6.23621"/>
			<rect x="0" y="835.653" width="22.6772" height="6.23621" class="st6"/>
			<text x="5.14" y="842.37" class="st7" v:langID="1033"><v:paragraph v:horizAlign="1"/><v:tabList/>n1</text>		</g>
		<g id="shape52-147" v:mID="52" v:groupContext="shape" transform="translate(375.591,-728.219)">
			<title>Sheet.52</title>
			<desc>n4</desc>
			<v:userDefs/>
			<v:textBlock v:margins="rect(3.99999,3.99999,3.99999,3.99999)" v:tabSpace="42.5196"/>
			<v:textRect cx="11.3382" cy="838.771" width="22.68" height="6.23621"/>
			<rect x="0" y="835.653" width="22.6772" height="6.23621" class="st6"/>
			<text x="5.14" y="842.37" class="st7" v:langID="1033"><v:paragraph v:horizAlign="1"/><v:tabList/>n4</text>		</g>
		<g id="shape53-150" v:mID="53" v:groupContext="shape" transform="translate(1048.19,72.2834) rotate(90)">
			<title>Sheet.53</title>
			<path d="M0 841.89 L123.66 841.89" class="st8"/>
		</g>
		<g id="shape54-156" v:mID="54" v:groupContext="shape" transform="translate(411.024,1037.83) rotate(180)">
			<title>Sheet.54</title>
			<path d="M0 841.89 L204.72 841.89" class="st8"/>
		</g>
		<g id="shape55-161" v:mID="55" v:groupContext="shape" transform="translate(192.756,-763.369)">
			<title>Sheet.55</title>
			<desc>Y</desc>
			<v:userDefs/>
			<v:textBlock v:margins="rect(3.99999,3.99999,3.99999,3.99999)" v:tabSpace="42.5196"/>
			<v:textRect cx="5.78656" cy="838.771" width="11.58" height="6.23621"/>
			<rect x="0" y="835.653" width="11.5738" height="6.23621" class="st6"/>
			<text x="4" y="842.37" class="st7" v:langID="1033"><v:paragraph v:horizAlign="1"/><v:tabList/>Y</text>		</g>
		<g id="shape56-164" v:mID="56" v:groupContext="shape" transform="translate(405.119,-634.393)">
			<title>Sheet.56</title>
			<desc>X</desc>
			<v:userDefs/>
			<v:textBlock v:margins="rect(3.99999,3.99999,3.99999,3.99999)" v:tabSpace="42.5196"/>
			<v:textRect cx="5.78656" cy="838.771" width="11.58" height="6.23621"/>
			<rect x="0" y="835.653" width="11.5738" height="6.23621" class="st6"/>
			<text x="4" y="842.37" class="st7" v:langID="1033"><v:paragraph v:horizAlign="1"/><v:tabList/>X</text>		</g>
		<g id="shape58-167" v:mID="58" v:groupContext="shape" transform="translate(797.478,795.348) rotate(135.396)">
			<title>Sheet.58</title>
			<path d="M0 841.89 L35.83 841.89" class="st9"/>
		</g>
		<g id="shape59-173" v:mID="59" v:groupContext="shape" transform="translate(186.851,-617.386)">
			<title>Sheet.59</title>
			<desc>X</desc>
			<v:userDefs/>
			<v:textBlock v:margins="rect(3.99999,3.99999,3.99999,3.99999)" v:tabSpace="42.5196"/>
			<v:textRect cx="5.78656" cy="838.771" width="11.58" height="6.23621"/>
			<rect x="0" y="835.653" width="11.5738" height="6.23621" class="st6"/>
			<text x="4" y="842.37" class="st7" v:langID="1033"><v:paragraph v:horizAlign="1"/><v:tabList/>Z</text>		</g>
	</g>
</svg>
